<svg width="1072" height="2090" xmlns="http://www.w3.org/2000/svg" xmlns:xlink="http://www.w3.org/1999/xlink" xml:space="preserve" overflow="hidden"><g transform="translate(-1664 -191)"><path d="M2200 191.523C2452.38 191.523 2656.98 385.983 2656.98 625.862L2656.98 824.902 2656.73 826.115 2649.56 871.87 2665.94 875.457C2703.5 887.836 2747.57 926.364 2732.37 972.622L2637.7 957.485 2630.1 1026.58C2624.01 1096.1 2620.82 1168.09 2620.82 1241.81 2620.82 1389.27 2633.6 1529.74 2656.73 1657.51L2656.98 1658.73 2656.98 2028.53 2656.98 2030.15 2656.83 2030.15 2654.62 2054.33C2631.22 2181.58 2436.61 2280.88 2200 2280.88 1963.39 2280.88 1768.78 2181.58 1745.38 2054.33L1743.17 2030.15 1743.02 2030.15 1743.02 2028.53 1743.02 1653.12 1743.27 1651.9C1766.4 1524.13 1779.18 1383.66 1779.18 1236.2 1779.18 1162.48 1775.99 1090.49 1769.9 1020.97L1762.9 957.388 1667.63 972.621C1652.43 926.364 1696.5 887.837 1734.06 875.457L1751.29 871.684 1743.27 820.504 1743.02 819.287 1743.02 625.862C1743.02 385.983 1947.62 191.523 2200 191.523Z" fill="#9E0000" fill-rule="evenodd"/><path d="M2469 1570 2469 1570 2469 1940.35 2469 1940.35 2469 1982.28C2469 2026.31 2347.89 2062 2198.5 2062 2049.11 2062 1928 2026.31 1928 1982.28L1928 1902.56 1928 1902.56 1928 1570 1933.5 1572.28C1958.72 1577.45 2067.78 1581.34 2198.5 1581.34 2347.89 1581.34 2469 1576.26 2469 1570Z" fill-rule="evenodd"/><path d="M1817.39 845C1876.12 1019.25 1869.31 1322.33 1865.77 1561 1780.82 1441.26 1799.11 1010.99 1817.39 845Z" fill-rule="evenodd"/><path d="M15.388 0C74.1183 174.247 67.306 477.333 63.7704 716-21.1771 596.263-2.89475 165.988 15.388 0Z" fill-rule="evenodd" transform="matrix(-1 0 0 1 2598 845)"/><path d="M2200 630C2395.44 630 2556.19 691.732 2575.52 770.84L2577 782.997 2575.09 786.88 2551.91 786.88 2551.91 786.881 2575.09 786.881 2565.68 805.998C2549.78 842.219 2537.47 882.622 2528 925.91L2514.15 1007 2491.81 993.807C2428.57 963.804 2321.47 944.078 2200 944.078 2078.53 944.078 1971.43 963.804 1908.19 993.807L1885.85 1007 1872 925.91C1862.53 882.623 1850.22 842.22 1834.32 805.999L1825.05 787.154 1848.09 787.154 1848.09 786.88 1824.91 786.88 1823 782.998 1824.48 770.84C1843.81 691.732 2004.56 630 2200 630Z" fill-rule="evenodd"/><path d="M1928 2160 1928.36 2160.14C1987.28 2178.85 2087.05 2191.16 2200.22 2191.16 2290.75 2191.16 2372.71 2183.28 2432.04 2170.55L2469 2160.94 2469 2195.64 2432.04 2207.4C2372.71 2220.13 2290.75 2228 2200.22 2228 2109.69 2228 2027.72 2220.13 1968.4 2207.4L1928 2194.54Z" fill-rule="evenodd"/></g></svg>